<svg width="52" height="50" viewBox="0 0 52 50" fill="none" xmlns="http://www.w3.org/2000/svg">
<ellipse cx="2.69368" cy="20.4545" rx="2.69368" ry="2.72727" fill="white"/>
<ellipse cx="13.3515" cy="5.22729" rx="3.27926" ry="3.18182" fill="white"/>
<ellipse cx="17.4502" cy="16.25" rx="1.52251" ry="1.47727" fill="white"/>
<ellipse cx="10.8914" cy="30.5682" rx="1.99098" ry="1.93182" fill="white"/>
<ellipse cx="2.7251" cy="2.61911" rx="2.7251" ry="2.61911" transform="matrix(0.991162 0.132658 -0.140748 0.990045 21.584 44.0909)" fill="white"/>
<ellipse cx="26.9366" cy="28.8636" rx="1.4054" ry="1.36364" fill="white"/>
<ellipse cx="26.5849" cy="40.9091" rx="1.75675" ry="1.81818" fill="white"/>
<ellipse cx="13.0003" cy="43.4091" rx="2.69368" ry="2.72727" fill="white"/>
<ellipse cx="3.74843" cy="32.5" rx="2.57656" ry="2.5" fill="white"/>
<ellipse cx="49.307" cy="27.0455" rx="2.69368" ry="2.5" fill="white"/>
<ellipse cx="37.4785" cy="12.1591" rx="3.27926" ry="3.06818" fill="white"/>
<ellipse cx="30.3328" cy="2.04545" rx="1.99098" ry="2.04545" fill="white"/>
<ellipse cx="22.9556" cy="11.4773" rx="2.34233" ry="2.38636" fill="white"/>
<ellipse cx="22.0182" cy="21.5909" rx="2.10809" ry="2.04545" fill="white"/>
<ellipse cx="33.2603" cy="27.2727" rx="2.34233" ry="2.27273" fill="white"/>
<ellipse cx="27.6396" cy="16.7045" rx="1.63963" ry="1.70454" fill="white"/>
<ellipse cx="44.6202" cy="10.7954" rx="1.52251" ry="1.47727" fill="white"/>
<ellipse cx="1.67316" cy="1.70513" rx="1.67316" ry="1.70513" transform="matrix(0.988966 0.148146 -0.157138 0.987577 35.6719 2.5)" fill="white"/>
<ellipse cx="48.1355" cy="17.1591" rx="1.99098" ry="1.93182" fill="white"/>
<ellipse cx="44.3861" cy="31.8182" rx="1.05405" ry="1.13636" fill="white"/>
<ellipse cx="39.4678" cy="33.1818" rx="1.52251" ry="1.36364" fill="white"/>
<ellipse cx="2.7782" cy="2.78708" rx="2.7782" ry="2.78708" transform="matrix(0.991976 0.126427 -0.134152 0.990961 31.543 43.0919)" fill="white"/>
<ellipse cx="2.06964" cy="1.97181" rx="2.06964" ry="1.97181" transform="matrix(0.997716 0.0675408 -0.0717199 0.997425 41.8281 37.8325)" fill="white"/>
</svg>
