<svg width="16" height="16" viewBox="0 0 16 16" fill="none" xmlns="http://www.w3.org/2000/svg">
<rect width="16" height="16" fill="#3472F2"/>
<ellipse cx="1.27701" cy="6.72726" rx="0.777012" ry="0.763636" fill="white"/>
<ellipse cx="4.35218" cy="2.46366" rx="0.945928" ry="0.890908" fill="white"/>
<ellipse cx="5.53293" cy="5.54999" rx="0.439181" ry="0.413636" fill="white"/>
<ellipse cx="3.64267" cy="9.5591" rx="0.574314" ry="0.540909" fill="white"/>
<ellipse cx="0.785676" cy="0.733796" rx="0.785676" ry="0.733796" transform="matrix(0.991666 0.128833 -0.144912 0.989444 6.72656 13.3455)" fill="white"/>
<ellipse cx="8.27063" cy="9.08183" rx="0.405398" ry="0.381818" fill="white"/>
<ellipse cx="8.16886" cy="12.4545" rx="0.506747" ry="0.50909" fill="white"/>
<ellipse cx="4.24967" cy="13.1546" rx="0.777012" ry="0.763636" fill="white"/>
<ellipse cx="1.58112" cy="10.1" rx="0.743229" ry="0.699999" fill="white"/>
<ellipse cx="14.7223" cy="8.57274" rx="0.777012" ry="0.699999" fill="white"/>
<ellipse cx="11.3112" cy="4.40456" rx="0.945928" ry="0.85909" fill="white"/>
<ellipse cx="9.25009" cy="1.57273" rx="0.574314" ry="0.572727" fill="white"/>
<ellipse cx="7.12098" cy="4.21365" rx="0.675663" ry="0.668181" fill="white"/>
<ellipse cx="6.85224" cy="7.04544" rx="0.608097" ry="0.572727" fill="white"/>
<ellipse cx="10.0936" cy="8.63636" rx="0.675663" ry="0.636363" fill="white"/>
<ellipse cx="8.47296" cy="5.67728" rx="0.472964" ry="0.477272" fill="white"/>
<ellipse cx="13.3708" cy="4.02271" rx="0.439181" ry="0.413636" fill="white"/>
<ellipse cx="0.482329" cy="0.477797" rx="0.482329" ry="0.477797" transform="matrix(0.989593 0.143894 -0.161762 0.98683 10.7891 1.70001)" fill="white"/>
<ellipse cx="14.3849" cy="5.80452" rx="0.574314" ry="0.540909" fill="white"/>
<ellipse cx="13.304" cy="9.90906" rx="0.304048" ry="0.318181" fill="white"/>
<ellipse cx="11.8845" cy="10.2909" rx="0.439181" ry="0.381818" fill="white"/>
<ellipse cx="0.801024" cy="0.780812" rx="0.801024" ry="0.780812" transform="matrix(0.992434 0.122777 -0.138128 0.990414 9.59961 13.0657)" fill="white"/>
<ellipse cx="0.596926" cy="0.552193" rx="0.596926" ry="0.552193" transform="matrix(0.997848 0.065569 -0.0738748 0.997267 12.5664 11.5931)" fill="white"/>
</svg>
