<svg width="175" height="50" viewBox="0 0 175 50" fill="none" xmlns="http://www.w3.org/2000/svg">
<ellipse cx="2.69368" cy="20.4545" rx="2.69368" ry="2.72727" fill="white"/>
<ellipse cx="13.3515" cy="5.22729" rx="3.27926" ry="3.18182" fill="white"/>
<ellipse cx="17.4502" cy="16.25" rx="1.52251" ry="1.47727" fill="white"/>
<ellipse cx="10.8914" cy="30.5682" rx="1.99098" ry="1.93182" fill="white"/>
<ellipse cx="2.7251" cy="2.61911" rx="2.7251" ry="2.61911" transform="matrix(0.991162 0.132658 -0.140748 0.990045 21.584 44.0909)" fill="white"/>
<ellipse cx="26.9366" cy="28.8636" rx="1.4054" ry="1.36364" fill="white"/>
<ellipse cx="26.5849" cy="40.9091" rx="1.75675" ry="1.81818" fill="white"/>
<ellipse cx="13.0003" cy="43.4091" rx="2.69368" ry="2.72727" fill="white"/>
<ellipse cx="3.74843" cy="32.5" rx="2.57656" ry="2.5" fill="white"/>
<ellipse cx="49.307" cy="27.0455" rx="2.69368" ry="2.5" fill="white"/>
<ellipse cx="37.4785" cy="12.1591" rx="3.27926" ry="3.06818" fill="white"/>
<ellipse cx="30.3328" cy="2.04545" rx="1.99098" ry="2.04545" fill="white"/>
<ellipse cx="22.9556" cy="11.4773" rx="2.34233" ry="2.38636" fill="white"/>
<ellipse cx="22.0182" cy="21.5909" rx="2.10809" ry="2.04545" fill="white"/>
<ellipse cx="33.2603" cy="27.2727" rx="2.34233" ry="2.27273" fill="white"/>
<ellipse cx="27.6396" cy="16.7045" rx="1.63963" ry="1.70454" fill="white"/>
<ellipse cx="44.6202" cy="10.7954" rx="1.52251" ry="1.47727" fill="white"/>
<ellipse cx="1.67316" cy="1.70513" rx="1.67316" ry="1.70513" transform="matrix(0.988966 0.148146 -0.157138 0.987577 35.6719 2.5)" fill="white"/>
<ellipse cx="48.1355" cy="17.1591" rx="1.99098" ry="1.93182" fill="white"/>
<ellipse cx="44.3861" cy="31.8182" rx="1.05405" ry="1.13636" fill="white"/>
<ellipse cx="39.4678" cy="33.1818" rx="1.52251" ry="1.36364" fill="white"/>
<ellipse cx="2.7782" cy="2.78708" rx="2.7782" ry="2.78708" transform="matrix(0.991976 0.126427 -0.134152 0.990961 31.543 43.0919)" fill="white"/>
<ellipse cx="2.06964" cy="1.97181" rx="2.06964" ry="1.97181" transform="matrix(0.997716 0.0675408 -0.0717199 0.997425 41.8281 37.8325)" fill="white"/>
<path d="M74.619 21.407L74.772 22.262C74.4 22.448 73.989 22.61 73.539 22.748C73.095 22.886 72.624 22.991 72.126 23.063C71.628 23.141 71.115 23.18 70.587 23.18C69.597 23.18 68.688 23.042 67.86 22.766C67.038 22.49 66.327 22.088 65.727 21.56C65.127 21.032 64.662 20.393 64.332 19.643C64.008 18.887 63.846 18.032 63.846 17.078C63.846 15.8 64.119 14.687 64.665 13.739C65.217 12.791 66.009 12.059 67.041 11.543C68.079 11.021 69.327 10.76 70.785 10.76C71.211 10.76 71.613 10.787 71.991 10.841C72.375 10.889 72.804 10.973 73.278 11.093L72.684 11.183L73.845 10.418H74.007L74.529 14.54L74.115 14.621L72.54 11.723L73.44 12.569C72.96 12.233 72.477 11.987 71.991 11.831C71.511 11.669 70.968 11.588 70.362 11.588C69.54 11.588 68.817 11.699 68.193 11.921C67.575 12.143 67.056 12.467 66.636 12.893C66.222 13.319 65.91 13.832 65.7 14.432C65.49 15.032 65.385 15.71 65.385 16.466C65.385 17.72 65.607 18.788 66.051 19.67C66.495 20.552 67.104 21.224 67.878 21.686C68.652 22.142 69.534 22.37 70.524 22.37C70.938 22.37 71.349 22.334 71.757 22.262C72.165 22.184 72.537 22.076 72.873 21.938C73.209 21.794 73.47 21.629 73.656 21.443L73.179 22.487V18.482L71.487 17.96V17.609H75.771V17.96L74.619 18.428V21.407ZM78.9646 22.235L80.3596 22.667V23H76.2826V22.667L77.6506 22.235V12.038C77.5726 11.942 77.4706 11.846 77.3446 11.75C77.2186 11.654 77.0656 11.558 76.8856 11.462C76.7056 11.36 76.4986 11.261 76.2646 11.165V10.985L78.8746 10.229H79.0546L78.9646 11.669V22.235ZM85.0186 22.487C85.4686 22.487 85.8706 22.379 86.2246 22.163C86.5786 21.941 86.8576 21.602 87.0616 21.146C87.2656 20.684 87.3676 20.096 87.3676 19.382C87.3676 18.614 87.2656 17.969 87.0616 17.447C86.8636 16.919 86.5846 16.52 86.2246 16.25C85.8646 15.98 85.4416 15.845 84.9556 15.845C84.5056 15.845 84.1036 15.956 83.7496 16.178C83.3956 16.394 83.1166 16.733 82.9126 17.195C82.7086 17.651 82.6066 18.236 82.6066 18.95C82.6066 19.712 82.7056 20.357 82.9036 20.885C83.1076 21.413 83.3896 21.812 83.7496 22.082C84.1156 22.352 84.5386 22.487 85.0186 22.487ZM84.9646 23.18C84.2086 23.18 83.5396 23.015 82.9576 22.685C82.3816 22.349 81.9316 21.887 81.6076 21.299C81.2836 20.705 81.1216 20.024 81.1216 19.256C81.1216 18.464 81.2896 17.759 81.6256 17.141C81.9676 16.523 82.4296 16.037 83.0116 15.683C83.5996 15.329 84.2656 15.152 85.0096 15.152C85.7716 15.152 86.4406 15.32 87.0166 15.656C87.5926 15.986 88.0426 16.445 88.3666 17.033C88.6906 17.621 88.8526 18.302 88.8526 19.076C88.8526 19.868 88.6816 20.573 88.3396 21.191C88.0036 21.809 87.5416 22.295 86.9536 22.649C86.3716 23.003 85.7086 23.18 84.9646 23.18ZM91.2175 22.487H92.1625L90.7495 23.144L90.4615 23.036L90.6595 21.155V12.038C90.5815 11.942 90.4795 11.846 90.3535 11.75C90.2275 11.654 90.0745 11.558 89.8945 11.462C89.7145 11.36 89.5075 11.261 89.2735 11.165V10.985L91.8835 10.229H92.0635L91.9735 11.669V20.696C91.9735 21.02 92.0605 21.314 92.2345 21.578C92.4085 21.842 92.6575 22.052 92.9815 22.208C93.3115 22.358 93.7015 22.433 94.1515 22.433C94.6615 22.433 95.0935 22.301 95.4475 22.037C95.8075 21.773 96.0835 21.398 96.2755 20.912C96.4675 20.426 96.5635 19.856 96.5635 19.202C96.5635 18.542 96.4555 17.984 96.2395 17.528C96.0295 17.066 95.7355 16.718 95.3575 16.484C94.9795 16.244 94.5415 16.124 94.0435 16.124C93.6895 16.124 93.3535 16.154 93.0355 16.214C92.7175 16.274 92.4205 16.364 92.1445 16.484C91.8745 16.604 91.6225 16.757 91.3885 16.943V16.304C91.7125 16.106 92.0215 15.935 92.3155 15.791C92.6095 15.647 92.8885 15.53 93.1525 15.44C93.4165 15.344 93.6715 15.272 93.9175 15.224C94.1635 15.176 94.3975 15.152 94.6195 15.152C95.3755 15.152 96.0085 15.305 96.5185 15.611C97.0345 15.917 97.4245 16.343 97.6885 16.889C97.9525 17.429 98.0845 18.056 98.0845 18.77C98.0845 19.43 97.9765 20.03 97.7605 20.57C97.5505 21.11 97.2505 21.575 96.8605 21.965C96.4705 22.355 96.0115 22.655 95.4835 22.865C94.9615 23.075 94.3885 23.18 93.7645 23.18C93.5125 23.18 93.2545 23.156 92.9905 23.108C92.7265 23.06 92.4475 22.988 92.1535 22.892C91.8655 22.79 91.5535 22.655 91.2175 22.487ZM104.014 18.113L104.158 18.743C103.45 18.905 102.871 19.07 102.421 19.238C101.971 19.4 101.62 19.568 101.368 19.742C101.116 19.916 100.939 20.102 100.837 20.3C100.741 20.492 100.693 20.705 100.693 20.939C100.693 21.347 100.813 21.659 101.053 21.875C101.299 22.091 101.596 22.199 101.944 22.199C102.226 22.199 102.484 22.127 102.718 21.983C102.952 21.839 103.138 21.65 103.276 21.416C103.42 21.182 103.492 20.93 103.492 20.66V17.42C103.492 16.988 103.381 16.643 103.159 16.385C102.937 16.127 102.571 15.998 102.061 15.998C101.881 15.998 101.674 16.028 101.44 16.088C101.206 16.142 100.978 16.226 100.756 16.34L101.215 15.926C101.197 16.094 101.17 16.262 101.134 16.43C101.104 16.598 101.065 16.748 101.017 16.88C100.975 17.012 100.921 17.114 100.855 17.186C100.759 17.288 100.639 17.363 100.495 17.411C100.351 17.459 100.207 17.483 100.063 17.483C99.8774 17.483 99.7304 17.441 99.6224 17.357C99.5144 17.267 99.4604 17.156 99.4604 17.024C99.4604 16.838 99.5504 16.643 99.7304 16.439C99.9164 16.229 100.159 16.034 100.459 15.854C100.765 15.668 101.104 15.518 101.476 15.404C101.848 15.29 102.226 15.233 102.61 15.233C103.132 15.233 103.555 15.314 103.879 15.476C104.203 15.632 104.437 15.866 104.581 16.178C104.731 16.484 104.806 16.862 104.806 17.312V21.425C104.806 21.611 104.833 21.767 104.887 21.893C104.941 22.013 105.019 22.106 105.121 22.172C105.229 22.232 105.361 22.262 105.517 22.262C105.655 22.262 105.802 22.235 105.958 22.181C106.12 22.127 106.276 22.055 106.426 21.965V22.379C106.18 22.649 105.919 22.847 105.643 22.973C105.373 23.099 105.121 23.162 104.887 23.162C104.599 23.162 104.35 23.099 104.14 22.973C103.936 22.841 103.78 22.655 103.672 22.415C103.564 22.169 103.51 21.881 103.51 21.551L103.564 21.461C103.486 21.797 103.339 22.094 103.123 22.352C102.913 22.61 102.658 22.814 102.358 22.964C102.064 23.108 101.749 23.18 101.413 23.18C100.813 23.18 100.318 23.012 99.9284 22.676C99.5384 22.34 99.3434 21.857 99.3434 21.227C99.3434 20.891 99.4094 20.585 99.5414 20.309C99.6794 20.033 99.9194 19.775 100.261 19.535C100.603 19.289 101.077 19.052 101.683 18.824C102.295 18.59 103.072 18.353 104.014 18.113ZM109.147 22.235L110.542 22.667V23H106.465V22.667L107.833 22.235V12.038C107.755 11.942 107.653 11.846 107.527 11.75C107.401 11.654 107.248 11.558 107.068 11.462C106.888 11.36 106.681 11.261 106.447 11.165V10.985L109.057 10.229H109.237L109.147 11.669V22.235ZM122.314 11.507L121.009 11.156L122.107 10.418H122.26L122.818 14.387L122.422 14.459L120.865 11.678L121.18 12.092C120.868 11.87 120.55 11.714 120.226 11.624C119.908 11.528 119.56 11.48 119.182 11.48C118.408 11.48 117.808 11.663 117.382 12.029C116.956 12.395 116.743 12.881 116.743 13.487C116.743 13.889 116.824 14.228 116.986 14.504C117.154 14.78 117.382 15.014 117.67 15.206C117.958 15.398 118.285 15.566 118.651 15.71C119.017 15.854 119.401 15.998 119.803 16.142C120.205 16.286 120.604 16.445 121 16.619C121.396 16.787 121.756 16.997 122.08 17.249C122.41 17.495 122.674 17.807 122.872 18.185C123.07 18.563 123.169 19.028 123.169 19.58C123.169 20.354 122.986 21.008 122.62 21.542C122.26 22.076 121.759 22.484 121.117 22.766C120.481 23.042 119.743 23.18 118.903 23.18C118.327 23.18 117.814 23.138 117.364 23.054C116.914 22.976 116.446 22.838 115.96 22.64L115.177 19.526H115.699L117.823 22.631L116.329 21.686C116.797 21.938 117.214 22.124 117.58 22.244C117.952 22.358 118.348 22.415 118.768 22.415C119.428 22.415 119.992 22.331 120.46 22.163C120.934 21.989 121.297 21.728 121.549 21.38C121.801 21.032 121.927 20.594 121.927 20.066C121.927 19.604 121.822 19.22 121.612 18.914C121.408 18.608 121.135 18.356 120.793 18.158C120.451 17.954 120.076 17.78 119.668 17.636C119.266 17.486 118.867 17.336 118.471 17.186C118.075 17.036 117.703 16.874 117.355 16.7C117.013 16.52 116.71 16.31 116.446 16.07C116.188 15.83 115.984 15.542 115.834 15.206C115.69 14.864 115.618 14.456 115.618 13.982C115.618 13.322 115.771 12.752 116.077 12.272C116.389 11.792 116.83 11.42 117.4 11.156C117.976 10.892 118.654 10.76 119.434 10.76C119.968 10.76 120.463 10.82 120.919 10.94C121.381 11.06 121.846 11.249 122.314 11.507ZM126.611 20.84C126.611 21.242 126.731 21.545 126.971 21.749C127.217 21.947 127.565 22.046 128.015 22.046C128.225 22.046 128.453 22.025 128.699 21.983C128.945 21.941 129.212 21.878 129.5 21.794V22.217C129.152 22.463 128.846 22.655 128.582 22.793C128.324 22.925 128.09 23.015 127.88 23.063C127.67 23.117 127.463 23.144 127.259 23.144C126.863 23.144 126.518 23.072 126.224 22.928C125.93 22.778 125.702 22.559 125.54 22.271C125.378 21.977 125.297 21.617 125.297 21.191V16.547L124.325 15.872V15.71C124.457 15.614 124.586 15.518 124.712 15.422C124.844 15.32 124.976 15.218 125.108 15.116C125.24 15.014 125.372 14.912 125.504 14.81C125.636 14.702 125.771 14.594 125.909 14.486C126.047 14.378 126.188 14.267 126.332 14.153H126.611V15.602V20.84ZM126.098 16.16V15.332H129.239L129.095 16.16H126.098ZM132.295 20.462C132.295 20.828 132.343 21.119 132.439 21.335C132.541 21.545 132.712 21.698 132.952 21.794C133.198 21.884 133.534 21.929 133.96 21.929C134.368 21.929 134.761 21.851 135.139 21.695C135.523 21.539 135.79 21.341 135.94 21.101L136.282 21.443C135.982 21.767 135.7 22.04 135.436 22.262C135.178 22.484 134.926 22.664 134.68 22.802C134.434 22.934 134.182 23.03 133.924 23.09C133.666 23.15 133.387 23.18 133.087 23.18C132.367 23.18 131.836 22.952 131.494 22.496C131.152 22.034 130.981 21.344 130.981 20.426V16.214L129.703 15.674V15.323L132.376 15.197L132.295 16.196V20.462ZM135.958 23.144L135.823 21.506V16.214L134.545 15.674V15.323L137.236 15.197L137.146 16.196V21.74C137.2 21.8 137.272 21.86 137.362 21.92C137.452 21.974 137.551 22.028 137.659 22.082C137.767 22.136 137.875 22.181 137.983 22.217C138.091 22.253 138.193 22.277 138.289 22.289V22.559L136.138 23.144H135.958ZM145.286 17.636C145.286 17.138 145.109 16.724 144.755 16.394C144.401 16.064 143.882 15.899 143.198 15.899C142.664 15.899 142.208 16.031 141.83 16.295C141.458 16.559 141.176 16.934 140.984 17.42C140.792 17.9 140.696 18.47 140.696 19.13C140.696 19.79 140.801 20.351 141.011 20.813C141.227 21.269 141.524 21.617 141.902 21.857C142.28 22.091 142.718 22.208 143.216 22.208C143.678 22.208 144.119 22.136 144.539 21.992C144.965 21.842 145.379 21.611 145.781 21.299V21.938C145.349 22.196 144.983 22.409 144.683 22.577C144.383 22.739 144.119 22.865 143.891 22.955C143.663 23.039 143.45 23.096 143.252 23.126C143.06 23.162 142.856 23.18 142.64 23.18C141.89 23.18 141.257 23.027 140.741 22.721C140.225 22.415 139.835 21.989 139.571 21.443C139.307 20.897 139.175 20.27 139.175 19.562C139.175 18.872 139.286 18.257 139.508 17.717C139.736 17.171 140.045 16.709 140.435 16.331C140.831 15.947 141.281 15.656 141.785 15.458C142.295 15.254 142.832 15.152 143.396 15.152C143.684 15.152 143.966 15.176 144.242 15.224C144.518 15.272 144.803 15.347 145.097 15.449C145.391 15.545 145.706 15.677 146.042 15.845L145.286 16.358V11.786C145.214 11.696 145.121 11.612 145.007 11.534C144.893 11.456 144.761 11.381 144.611 11.309C144.467 11.231 144.308 11.156 144.134 11.084V10.922L146.51 10.229H146.681L146.6 11.687V21.74C146.654 21.8 146.726 21.86 146.816 21.92C146.906 21.974 147.005 22.028 147.113 22.082C147.221 22.136 147.329 22.181 147.437 22.217C147.545 22.253 147.647 22.277 147.743 22.289V22.559L145.592 23.144H145.412L145.286 21.776V17.636ZM152.14 15.152C152.722 15.152 153.226 15.281 153.652 15.539C154.078 15.797 154.417 16.175 154.669 16.673C154.927 17.165 155.086 17.768 155.146 18.482H149.638L149.656 17.879L154.282 17.663L153.67 18.041C153.628 17.609 153.541 17.231 153.409 16.907C153.283 16.577 153.106 16.322 152.878 16.142C152.65 15.956 152.359 15.863 152.005 15.863C151.585 15.863 151.216 15.98 150.898 16.214C150.58 16.442 150.331 16.778 150.151 17.222C149.977 17.666 149.89 18.209 149.89 18.851C149.89 19.517 150.019 20.093 150.277 20.579C150.541 21.065 150.907 21.44 151.375 21.704C151.843 21.968 152.389 22.1 153.013 22.1C153.241 22.1 153.463 22.07 153.679 22.01C153.901 21.95 154.12 21.86 154.336 21.74C154.552 21.62 154.762 21.473 154.966 21.299L155.191 21.542C154.891 21.914 154.585 22.223 154.273 22.469C153.961 22.709 153.631 22.886 153.283 23C152.935 23.12 152.56 23.18 152.158 23.18C151.462 23.18 150.841 23.012 150.295 22.676C149.755 22.334 149.329 21.869 149.017 21.281C148.705 20.693 148.549 20.024 148.549 19.274C148.549 18.518 148.693 17.828 148.981 17.204C149.269 16.58 149.68 16.082 150.214 15.71C150.754 15.338 151.396 15.152 152.14 15.152ZM158.736 16.799V22.235L160.131 22.667V23H156.054V22.667L157.422 22.235V16.934C157.326 16.832 157.182 16.733 156.99 16.637C156.798 16.541 156.498 16.427 156.09 16.295V16.07L158.277 15.152H158.466L158.736 16.799ZM161.22 22.667L162.615 22.235V17.978C162.615 17.654 162.546 17.375 162.408 17.141C162.27 16.901 162.066 16.718 161.796 16.592C161.526 16.46 161.196 16.394 160.806 16.394C160.332 16.394 159.891 16.484 159.483 16.664C159.081 16.838 158.802 17.048 158.646 17.294L158.295 17.006C158.613 16.664 158.913 16.376 159.195 16.142C159.483 15.902 159.762 15.71 160.032 15.566C160.308 15.422 160.59 15.317 160.878 15.251C161.166 15.185 161.469 15.152 161.787 15.152C162.513 15.152 163.05 15.386 163.398 15.854C163.752 16.316 163.929 17.051 163.929 18.059V22.235L165.315 22.667V23H161.22V22.667ZM168.039 20.84C168.039 21.242 168.159 21.545 168.399 21.749C168.645 21.947 168.993 22.046 169.443 22.046C169.653 22.046 169.881 22.025 170.127 21.983C170.373 21.941 170.64 21.878 170.928 21.794V22.217C170.58 22.463 170.274 22.655 170.01 22.793C169.752 22.925 169.518 23.015 169.308 23.063C169.098 23.117 168.891 23.144 168.687 23.144C168.291 23.144 167.946 23.072 167.652 22.928C167.358 22.778 167.13 22.559 166.968 22.271C166.806 21.977 166.725 21.617 166.725 21.191V16.547L165.753 15.872V15.71C165.885 15.614 166.014 15.518 166.14 15.422C166.272 15.32 166.404 15.218 166.536 15.116C166.668 15.014 166.8 14.912 166.932 14.81C167.064 14.702 167.199 14.594 167.337 14.486C167.475 14.378 167.616 14.267 167.76 14.153H168.039V15.602V20.84ZM167.526 16.16V15.332H170.667L170.523 16.16H167.526ZM65.205 40.181V29.903L63.738 29.291V28.94H66.564L73.998 38.759L73.575 39.587V29.759L72.036 29.291V28.94H75.861V29.291L74.439 29.759V41.171H74.052L65.772 30.254L66.069 29.93V40.181L67.608 40.649V41H63.783V40.649L65.205 40.181ZM80.252 33.152C80.834 33.152 81.338 33.281 81.764 33.539C82.19 33.797 82.529 34.175 82.781 34.673C83.039 35.165 83.198 35.768 83.258 36.482H77.75L77.768 35.879L82.394 35.663L81.782 36.041C81.74 35.609 81.653 35.231 81.521 34.907C81.395 34.577 81.218 34.322 80.99 34.142C80.762 33.956 80.471 33.863 80.117 33.863C79.697 33.863 79.328 33.98 79.01 34.214C78.692 34.442 78.443 34.778 78.263 35.222C78.089 35.666 78.002 36.209 78.002 36.851C78.002 37.517 78.131 38.093 78.389 38.579C78.653 39.065 79.019 39.44 79.487 39.704C79.955 39.968 80.501 40.1 81.125 40.1C81.353 40.1 81.575 40.07 81.791 40.01C82.013 39.95 82.232 39.86 82.448 39.74C82.664 39.62 82.874 39.473 83.078 39.299L83.303 39.542C83.003 39.914 82.697 40.223 82.385 40.469C82.073 40.709 81.743 40.886 81.395 41C81.047 41.12 80.672 41.18 80.27 41.18C79.574 41.18 78.953 41.012 78.407 40.676C77.867 40.334 77.441 39.869 77.129 39.281C76.817 38.693 76.661 38.024 76.661 37.274C76.661 36.518 76.805 35.828 77.093 35.204C77.381 34.58 77.792 34.082 78.326 33.71C78.866 33.338 79.508 33.152 80.252 33.152ZM86.4702 38.84C86.4702 39.242 86.5902 39.545 86.8302 39.749C87.0762 39.947 87.4242 40.046 87.8742 40.046C88.0842 40.046 88.3122 40.025 88.5582 39.983C88.8042 39.941 89.0712 39.878 89.3592 39.794V40.217C89.0112 40.463 88.7052 40.655 88.4412 40.793C88.1832 40.925 87.9492 41.015 87.7392 41.063C87.5292 41.117 87.3222 41.144 87.1182 41.144C86.7222 41.144 86.3772 41.072 86.0832 40.928C85.7892 40.778 85.5612 40.559 85.3992 40.271C85.2372 39.977 85.1562 39.617 85.1562 39.191V34.547L84.1842 33.872V33.71C84.3162 33.614 84.4452 33.518 84.5712 33.422C84.7032 33.32 84.8352 33.218 84.9672 33.116C85.0992 33.014 85.2312 32.912 85.3632 32.81C85.4952 32.702 85.6302 32.594 85.7682 32.486C85.9062 32.378 86.0472 32.267 86.1912 32.153H86.4702V33.602V38.84ZM85.9572 34.16V33.332H89.0982L88.9542 34.16H85.9572ZM100.263 34.052L99.0934 33.719V33.332H101.964V33.719L101.001 34.052L98.6974 41.18H98.2654L95.5924 34.898H95.9254L93.2974 41.18H92.8654L90.4804 34.142L89.3644 33.719V33.332H93.0184V33.719L91.8484 34.097L93.6484 39.47H93.3154L95.9434 33.152H96.2494L98.9494 39.47H98.6164L100.263 34.052ZM106.157 40.487C106.607 40.487 107.009 40.379 107.363 40.163C107.717 39.941 107.996 39.602 108.2 39.146C108.404 38.684 108.506 38.096 108.506 37.382C108.506 36.614 108.404 35.969 108.2 35.447C108.002 34.919 107.723 34.52 107.363 34.25C107.003 33.98 106.58 33.845 106.094 33.845C105.644 33.845 105.242 33.956 104.888 34.178C104.534 34.394 104.255 34.733 104.051 35.195C103.847 35.651 103.745 36.236 103.745 36.95C103.745 37.712 103.844 38.357 104.042 38.885C104.246 39.413 104.528 39.812 104.888 40.082C105.254 40.352 105.677 40.487 106.157 40.487ZM106.103 41.18C105.347 41.18 104.678 41.015 104.096 40.685C103.52 40.349 103.07 39.887 102.746 39.299C102.422 38.705 102.26 38.024 102.26 37.256C102.26 36.464 102.428 35.759 102.764 35.141C103.106 34.523 103.568 34.037 104.15 33.683C104.738 33.329 105.404 33.152 106.148 33.152C106.91 33.152 107.579 33.32 108.155 33.656C108.731 33.986 109.181 34.445 109.505 35.033C109.829 35.621 109.991 36.302 109.991 37.076C109.991 37.868 109.82 38.573 109.478 39.191C109.142 39.809 108.68 40.295 108.092 40.649C107.51 41.003 106.847 41.18 106.103 41.18ZM116.235 33.215C116.541 33.215 116.763 33.287 116.901 33.431C117.039 33.575 117.108 33.764 117.108 33.998C117.108 34.268 117.021 34.487 116.847 34.655C116.673 34.817 116.433 34.898 116.127 34.898C115.995 34.898 115.863 34.874 115.731 34.826C115.599 34.772 115.458 34.721 115.308 34.673C115.164 34.625 115.005 34.601 114.831 34.601C114.693 34.601 114.54 34.622 114.372 34.664C114.204 34.7 114.039 34.754 113.877 34.826C113.715 34.898 113.574 34.982 113.454 35.078L113.256 34.763C113.61 34.499 113.934 34.271 114.228 34.079C114.528 33.887 114.801 33.728 115.047 33.602C115.293 33.47 115.515 33.374 115.713 33.314C115.911 33.248 116.085 33.215 116.235 33.215ZM113.625 34.799V40.235L115.02 40.667V41H110.943V40.667L112.311 40.235V34.934C112.233 34.85 112.131 34.775 112.005 34.709C111.885 34.643 111.738 34.577 111.564 34.511C111.396 34.439 111.201 34.367 110.979 34.295V34.07L113.346 33.152H113.535L113.625 34.799ZM121.692 36.779L121.827 36.41L125.202 40.244L126.318 40.667V41H122.529V40.667L123.582 40.289L120.801 37.139H119.613V36.419H121.143L123.438 34.052L122.268 33.719V33.332H125.571V33.719L124.419 34.052L121.692 36.779ZM119.856 40.235L121.251 40.667V41H117.174V40.667L118.542 40.235V30.038C118.464 29.942 118.362 29.846 118.236 29.75C118.11 29.654 117.957 29.558 117.777 29.462C117.597 29.36 117.39 29.261 117.156 29.165V28.985L119.766 28.229H119.946L119.856 29.669V40.235Z" fill="white"/>
</svg>
