<svg width="56" height="56" viewBox="0 0 56 56" fill="none" xmlns="http://www.w3.org/2000/svg">
<circle cx="28" cy="28" r="27.5" stroke="white"/>
<g clip-path="url(#clip0_14601_2)">
<path d="M21.7876 13.105C20.1916 13.1803 19.1017 13.435 18.1489 13.8094C17.1628 14.1937 16.327 14.7094 15.4954 15.544C14.6638 16.3786 14.1517 17.215 13.7701 18.2026C13.4008 19.1575 13.1506 20.2483 13.0801 21.8452C13.0096 23.4421 12.994 23.9554 13.0018 28.0288C13.0096 32.1022 13.0276 32.6128 13.105 34.213C13.1812 35.8087 13.435 36.8983 13.8094 37.8514C14.1943 38.8375 14.7094 39.673 15.5443 40.5049C16.3792 41.3368 17.215 41.8477 18.205 42.2299C19.159 42.5986 20.2501 42.85 21.8467 42.9199C23.4433 42.9898 23.9572 43.006 28.0294 42.9982C32.1016 42.9904 32.6143 42.9724 34.2142 42.8965C35.8141 42.8206 36.898 42.565 37.8514 42.1924C38.8375 41.8066 39.6736 41.2924 40.5049 40.4572C41.3362 39.622 41.848 38.785 42.2293 37.7968C42.5989 36.8428 42.85 35.7517 42.9193 34.1563C42.9892 32.5552 43.0057 32.044 42.9979 27.9712C42.9901 23.8984 42.9718 23.3878 42.8959 21.7882C42.82 20.1886 42.5659 19.1023 42.1918 18.1486C41.8063 17.1625 41.2918 16.3276 40.4572 15.4951C39.6226 14.6626 38.785 14.1511 37.7971 13.7707C36.8425 13.4014 35.752 13.1497 34.1554 13.0807C32.5588 13.0117 32.0449 12.994 27.9712 13.0018C23.8975 13.0096 23.3875 13.027 21.7876 13.105ZM21.9628 40.2214C20.5003 40.1578 19.7062 39.9148 19.177 39.7114C18.4762 39.4414 17.977 39.115 17.4496 38.5927C16.9222 38.0704 16.5982 37.5694 16.3246 36.8701C16.1191 36.3409 15.8716 35.5477 15.8032 34.0852C15.7288 32.5045 15.7132 32.0299 15.7045 28.0252C15.6958 24.0205 15.7111 23.5465 15.7804 21.9652C15.8428 20.5039 16.0873 19.7089 16.2904 19.18C16.5604 18.4783 16.8856 17.98 17.4091 17.4529C17.9326 16.9258 18.4321 16.6012 19.132 16.3276C19.6606 16.1212 20.4538 15.8758 21.9157 15.8062C23.4976 15.7312 23.9716 15.7162 27.9757 15.7075C31.9798 15.6988 32.455 15.7138 34.0375 15.7834C35.4988 15.847 36.2941 16.0891 36.8224 16.2934C37.5235 16.5634 38.0224 16.8877 38.5495 17.4121C39.0766 17.9365 39.4015 18.4342 39.6751 19.1356C39.8818 19.6627 40.1272 20.4556 40.1962 21.9184C40.2715 23.5003 40.2886 23.9746 40.2958 27.9784C40.303 31.9822 40.2889 32.4577 40.2196 34.0384C40.1557 35.5009 39.9133 36.2953 39.7096 36.8251C39.4396 37.5256 39.1141 38.0251 38.5903 38.5519C38.0665 39.0787 37.5676 39.4033 36.8674 39.6769C36.3394 39.883 35.5453 40.129 34.0846 40.1986C32.5027 40.273 32.0287 40.2886 28.0231 40.2973C24.0175 40.306 23.545 40.2898 21.9631 40.2214M34.1911 19.9831C34.1917 20.3392 34.2979 20.687 34.4962 20.9827C34.6945 21.2784 34.976 21.5086 35.3052 21.6443C35.6344 21.78 35.9964 21.815 36.3454 21.7449C36.6945 21.6748 37.015 21.5028 37.2662 21.2506C37.5175 20.9984 37.6884 20.6773 37.7572 20.328C37.826 19.9787 37.7897 19.6168 37.6528 19.2881C37.5159 18.9594 37.2846 18.6787 36.9882 18.4815C36.6918 18.2843 36.3436 18.1794 35.9875 18.1801C35.5102 18.1811 35.0529 18.3716 34.716 18.7097C34.3791 19.0478 34.1903 19.5058 34.1911 19.9831ZM20.2981 28.015C20.3065 32.269 23.7613 35.7097 28.0144 35.7016C32.2675 35.6935 35.7106 32.239 35.7025 27.985C35.6944 23.731 32.2387 20.2894 27.985 20.2978C23.7313 20.3062 20.29 23.7616 20.2981 28.015ZM22.9999 28.0096C22.998 27.0207 23.2893 26.0534 23.8371 25.2301C24.3849 24.4067 25.1645 23.7643 26.0774 23.384C26.9903 23.0038 27.9955 22.9028 28.9658 23.0938C29.9361 23.2848 30.828 23.7592 31.5286 24.4571C32.2293 25.155 32.7072 26.045 32.9021 27.0146C33.0969 27.9841 32.9999 28.9896 32.6233 29.904C32.2466 30.8184 31.6073 31.6006 30.7862 32.1517C29.965 32.7027 28.9988 32.9979 28.0099 32.9998C27.3533 33.0012 26.7028 32.8732 26.0956 32.6232C25.4884 32.3731 24.9365 32.0059 24.4712 31.5425C24.006 31.0791 23.6366 30.5286 23.3842 29.9224C23.1317 29.3162 23.0011 28.6663 22.9999 28.0096Z" fill="white"/>
</g>
<defs>
<clipPath id="clip0_14601_2">
<rect width="30" height="30" fill="white" transform="translate(13 13)"/>
</clipPath>
</defs>
</svg>
