<svg width="100" height="56" viewBox="0 0 100 56" fill="none" xmlns="http://www.w3.org/2000/svg">
<rect x="0.5" y="0.5" width="99" height="55" rx="23.5" stroke="#E5E5E5"/>
<line x1="16" y1="24.5" x2="36" y2="24.5" stroke="white"/>
<path d="M16 33H36" stroke="white"/>
<line x1="16" y1="28.5" x2="36" y2="28.5" stroke="white"/>
<path fill-rule="evenodd" clip-rule="evenodd" d="M91 28C91 38.4934 82.4934 47 72 47C61.5066 47 53 38.4934 53 28C53 17.5066 61.5066 9 72 9C82.4934 9 91 17.5066 91 28ZM85 38.75C85 42.3399 79.1797 45.25 72 45.25C64.8203 45.25 59 42.3399 59 38.75C59 35.1601 64.8203 32.25 72 32.25C79.1797 32.25 85 35.1601 85 38.75ZM72 31C76.4183 31 80 27.4183 80 23C80 18.5817 76.4183 15 72 15C67.5817 15 64 18.5817 64 23C64 27.4183 67.5817 31 72 31Z" fill="white"/>
</svg>
